<svg width="180" height="180" viewBox="0 0 180 180" fill="none" xmlns="http://www.w3.org/2000/svg">
<g clip-path="url(#clip0_2101_43)">
<path d="M34.3725 129.907C26.6475 121.702 22.5 112.5 22.5 97.5824C22.5 71.3324 40.9275 47.8049 67.725 36.1724L74.4225 46.5074C49.41 60.0374 44.52 77.5949 42.57 88.6649C46.5975 86.5799 51.87 85.8524 57.0375 86.3324C70.5675 87.5849 81.2325 98.6924 81.2325 112.5C81.2325 119.462 78.4669 126.139 73.5441 131.061C68.6212 135.984 61.9444 138.75 54.9825 138.75C46.935 138.75 39.24 135.075 34.3725 129.907ZM109.372 129.907C101.647 121.702 97.5 112.5 97.5 97.5824C97.5 71.3324 115.927 47.8049 142.725 36.1724L149.422 46.5074C124.41 60.0374 119.52 77.5949 117.57 88.6649C121.597 86.5799 126.87 85.8524 132.037 86.3324C145.567 87.5849 156.232 98.6924 156.232 112.5C156.232 119.462 153.467 126.139 148.544 131.061C143.621 135.984 136.944 138.75 129.982 138.75C121.935 138.75 114.24 135.075 109.372 129.907Z" fill="black"/>
</g>
<defs>
<clipPath id="clip0_2101_43">
<rect width="180" height="180" fill="white"/>
</clipPath>
</defs>
</svg>
