<svg width="20" height="20" viewBox="0 0 20 20" fill="none" xmlns="http://www.w3.org/2000/svg">
<g clip-path="url(#clip0_2009_546)">
<path d="M8.51221 4.43994C8.51221 5.15479 8.31445 5.72314 7.91895 6.14502C7.52344 6.56689 6.95654 6.77783 6.21826 6.77783C5.4624 6.77783 4.88965 6.56836 4.5 6.14941C4.11328 5.73047 3.91992 5.16064 3.91992 4.43994V0.388184H4.55273V4.35205C4.55273 4.93506 4.69043 5.3877 4.96582 5.70996C5.24414 6.03223 5.64551 6.19336 6.16992 6.19336H6.26221C6.78662 6.19336 7.18652 6.03223 7.46191 5.70996C7.74023 5.3877 7.87939 4.93506 7.87939 4.35205V0.388184H8.51221V4.43994ZM13.7988 2.23389C13.7725 1.82373 13.6128 1.49707 13.3198 1.25391C13.0298 1.00781 12.6636 0.884766 12.2212 0.884766H12.1333C11.6997 0.884766 11.3438 0.999023 11.0654 1.22754C10.7871 1.45605 10.6479 1.74316 10.6479 2.08887C10.6479 2.36426 10.7388 2.58691 10.9204 2.75684C11.105 2.92383 11.3628 3.04102 11.6938 3.1084L12.7002 3.30615C13.7871 3.52295 14.3306 4.08398 14.3306 4.98926C14.3306 5.54297 14.1328 5.97949 13.7373 6.29883C13.3447 6.61816 12.8101 6.77783 12.1333 6.77783C11.3569 6.77783 10.7578 6.59766 10.3359 6.2373C9.91406 5.87695 9.70312 5.36719 9.70312 4.70801H10.3315C10.3315 5.17676 10.4956 5.5415 10.8237 5.80225C11.1519 6.06299 11.5854 6.19336 12.1245 6.19336H12.2124C12.6782 6.19336 13.0415 6.0835 13.3022 5.86377C13.5659 5.64111 13.6978 5.36133 13.6978 5.02441C13.6978 4.73438 13.6025 4.50293 13.4121 4.33008C13.2217 4.1543 12.9272 4.02539 12.5288 3.94336L11.5225 3.73682C10.5205 3.52881 10.0195 2.98389 10.0195 2.10205C10.0195 1.59229 10.2158 1.16455 10.6084 0.818848C11.001 0.473145 11.5239 0.300293 12.1772 0.300293C12.8481 0.300293 13.3843 0.474609 13.7856 0.823242C14.1899 1.16895 14.4038 1.63916 14.4272 2.23389H13.7988Z" fill="black"/>
<rect x="-0.5" y="-0.810059" width="19" height="19" rx="9.5" stroke="white"/>
<g clip-path="url(#clip1_2009_546)">
<g clip-path="url(#clip2_2009_546)">
<g clip-path="url(#clip3_2009_546)">
<path fill-rule="evenodd" clip-rule="evenodd" d="M0 -0.310059H34.2004V1.07457H0V-0.310059ZM0 2.4592H34.2004V3.84383H0V2.4592ZM0 5.22846H34.2004V6.61309H0V5.22846ZM0 7.99771H34.2004V9.38234H0V7.99771ZM0 10.767H34.2004V12.1516H0V10.767ZM0 13.5362H34.2004V14.9209H0V13.5362ZM0 16.3055H34.2004V17.6901H0V16.3055Z" fill="#BD3D44"/>
<path fill-rule="evenodd" clip-rule="evenodd" d="M0 1.07446H34.2004V2.45909H0V1.07446ZM0 3.84372H34.2004V5.22835H0V3.84372ZM0 6.61298H34.2004V7.99761H0V6.61298ZM0 9.38224H34.2004V10.7669H0V9.38224ZM0 12.1515H34.2004V13.5361H0V12.1515ZM0 14.9208H34.2004V16.3054H0V14.9208Z" fill="white"/>
<path fill-rule="evenodd" clip-rule="evenodd" d="M0 -0.310059H13.6801V9.38234H0V-0.310059Z" fill="#192F5D"/>
<path fill-rule="evenodd" clip-rule="evenodd" d="M1.13538 0.105469L1.27382 0.493137H1.66153L1.34305 0.728543L1.46768 1.10239L1.13538 0.866988L0.83075 1.10239L0.955379 0.728543L0.623047 0.493137H1.03849L1.13538 0.105469ZM3.42001 0.105469L3.54464 0.493137H3.94616L3.61386 0.728543L3.7523 1.10239L3.42001 0.866988L3.08771 1.10239L3.22616 0.728543L2.89386 0.493137H3.29538L3.42001 0.105469ZM5.70464 0.105469L5.82927 0.493137H6.23079L5.89849 0.728543L6.03697 1.10239L5.70464 0.866988L5.37234 1.10239L5.51079 0.728543L5.17849 0.493137H5.58004L5.70464 0.105469ZM7.97545 0.105469L8.11389 0.493137H8.5016L8.18312 0.728543L8.30775 1.10239L7.97545 0.866988L7.65697 1.10239L7.7816 0.728543L7.44927 0.493137H7.86467L7.97545 0.105469ZM10.2601 0.105469L10.3847 0.493137H10.7862L10.4539 0.728543L10.5924 1.10239L10.2462 0.866988L9.92775 1.10239L10.0524 0.728543L9.72008 0.493137H10.1216L10.2601 0.105469ZM12.5447 0.105469L12.6693 0.493137H13.0709L12.7386 0.728543L12.877 1.10239L12.5447 0.866988L12.2124 1.10239L12.3509 0.728543L12.0186 0.493137H12.4201L12.5447 0.105469ZM2.2846 1.07469L2.40923 1.46239H2.81079L2.47845 1.69777L2.61693 2.07162L2.2846 1.83625L1.9523 2.07162L2.09075 1.69777L1.75845 1.46239H2.16001L2.2846 1.07469ZM4.55541 1.07469L4.69386 1.46239H5.08156L4.76308 1.69777L4.88771 2.07162L4.55541 1.83625L4.23693 2.07162L4.36156 1.69777L4.02923 1.46239H4.44464L4.55541 1.07469ZM6.84004 1.07469L6.96467 1.46239H7.36619L7.03389 1.69777L7.17234 2.07162L6.84004 1.83625L6.50771 2.07162L6.64619 1.69777L6.31389 1.46239H6.71541L6.84004 1.07469ZM9.12467 1.07469L9.2493 1.46239H9.65082L9.31852 1.69777L9.457 2.07162L9.12467 1.83625L8.79238 2.07162L8.93082 1.69777L8.59852 1.46239H9.00004L9.12467 1.07469ZM11.3955 1.07469L11.5339 1.46239H11.9078L11.5893 1.69777L11.7139 2.07162L11.3816 1.83625L11.0632 2.07162L11.1878 1.69777L10.8554 1.46239H11.2709L11.3955 1.07469ZM1.1492 2.04395L1.25997 2.43162H1.67538L1.34305 2.66702L1.46768 3.04087L1.13538 2.80547L0.83075 3.04087L0.955379 2.66702L0.623047 2.43162H1.03849L1.1492 2.04395ZM3.42001 2.04395L3.54464 2.43162H3.94616L3.62771 2.66702L3.7523 3.04087L3.42001 2.80547L3.10153 3.04087L3.22616 2.66702L2.89386 2.43162H3.29538L3.42001 2.04395ZM5.70464 2.04395L5.82927 2.43162H6.23079L5.89849 2.66702L6.03697 3.04087L5.70464 2.80547L5.37234 3.04087L5.51079 2.66702L5.17849 2.43162H5.58004L5.70464 2.04395ZM7.97545 2.04395L8.11389 2.43162H8.5016L8.18312 2.66702L8.30775 3.04087L7.97545 2.80547L7.65697 3.04087L7.7816 2.66702L7.44927 2.43162H7.86467L7.97545 2.04395ZM10.2601 2.04395L10.3847 2.43162H10.7862L10.4678 2.66702L10.5924 3.04087L10.2601 2.80547L9.9416 3.04087L10.0662 2.66702L9.73393 2.43162H10.1354L10.2601 2.04395ZM12.5447 2.04395L12.6693 2.43162H13.0709L12.7386 2.66702L12.877 3.04087L12.5447 2.80547L12.2124 3.04087L12.3509 2.66702L12.0186 2.43162H12.4201L12.5447 2.04395ZM2.2846 3.01314L2.40923 3.40084H2.81079L2.47845 3.63621L2.61693 4.01006L2.2846 3.77469L1.9523 4.01006L2.09075 3.63621L1.75845 3.40084H2.16001L2.2846 3.01314ZM4.55541 3.01314L4.69386 3.40084H5.08156L4.76308 3.63621L4.88771 4.01006L4.55541 3.77469L4.23693 4.01006L4.36156 3.63621L4.02923 3.40084H4.44464L4.55541 3.01314ZM6.84004 3.01314L6.96467 3.40084H7.36619L7.04775 3.63621L7.17234 4.01006L6.84004 3.77469L6.52156 4.01006L6.64619 3.63621L6.31389 3.40084H6.71541L6.84004 3.01314ZM9.12467 3.01314L9.2493 3.40084H9.65082L9.31852 3.63621L9.457 4.0101L9.12467 3.77473L8.79238 4.0101L8.93082 3.63625L8.59852 3.40088H9.00004L9.12467 3.01314ZM11.3955 3.01314L11.5339 3.40084H11.9078L11.5893 3.63621L11.7139 4.01006L11.3816 3.77469L11.0632 4.01006L11.1878 3.63621L10.8554 3.40084H11.2709L11.3955 3.01314ZM1.1492 3.98239L1.25997 4.37006H1.67538L1.34305 4.60547L1.46768 4.97932L1.13538 4.74391L0.83075 4.97932L0.955379 4.60547L0.623047 4.37006H1.03849L1.1492 3.98239ZM3.42001 3.98239L3.54464 4.37006H3.94616L3.62771 4.60547L3.7523 4.97932L3.42001 4.74391L3.10153 4.97932L3.22616 4.60547L2.89386 4.37006H3.29538L3.42001 3.98239ZM5.70464 3.98239L5.82927 4.37006H6.23079L5.89849 4.60547L6.03697 4.97932L5.70464 4.74391L5.37234 4.97932L5.51079 4.60547L5.17849 4.37006H5.58004L5.70464 3.98239ZM7.97545 3.98239L8.11389 4.37006H8.5016L8.18312 4.60547L8.30775 4.97932L7.97545 4.74391L7.65697 4.97932L7.7816 4.60547L7.44927 4.37006H7.86467L7.97545 3.98239ZM10.2601 3.98239L10.3847 4.37006H10.7862L10.4678 4.60547L10.5924 4.97932L10.2601 4.74391L9.9416 4.97932L10.0662 4.60547L9.73393 4.37006H10.1354L10.2601 3.98239ZM12.5447 3.98239L12.6693 4.37006H13.0709L12.7386 4.60547L12.877 4.97932L12.5447 4.74391L12.2124 4.97932L12.3509 4.60547L12.0186 4.37006H12.4201L12.5447 3.98239ZM2.2846 4.95162L2.40923 5.33932H2.81079L2.47845 5.57469L2.61693 5.94854L2.2846 5.71317L1.9523 5.94854L2.09075 5.57469L1.75845 5.33932H2.16001L2.2846 4.95162ZM4.55541 4.95162L4.69386 5.33932H5.08156L4.76308 5.57469L4.88771 5.94854L4.55541 5.71317L4.23693 5.94854L4.36156 5.57469L4.02923 5.33932H4.44464L4.55541 4.95162ZM6.84004 4.95162L6.96467 5.33932H7.36619L7.04775 5.57469L7.17234 5.94854L6.84004 5.71317L6.52156 5.94854L6.64619 5.57469L6.31389 5.33932H6.71541L6.84004 4.95162ZM9.12467 4.95162L9.2493 5.33932H9.65082L9.31852 5.57469L9.457 5.94858L9.12467 5.71321L8.79238 5.94858L8.93082 5.57473L8.59852 5.33936H9.00004L9.12467 4.95162ZM11.3955 4.95162L11.5339 5.33932H11.9078L11.5893 5.57469L11.7139 5.94854L11.3816 5.71317L11.0632 5.94854L11.1878 5.57469L10.8554 5.33932H11.2709L11.3955 4.95162ZM1.1492 5.92088L1.25997 6.30854H1.67538L1.34305 6.54395L1.46768 6.9178L1.13538 6.68239L0.83075 6.9178L0.955379 6.54395L0.623047 6.30854H1.03849L1.1492 5.92088ZM3.42001 5.92088L3.54464 6.30854H3.94616L3.62771 6.54395L3.7523 6.9178L3.42001 6.68239L3.10153 6.9178L3.22616 6.54395L2.89386 6.30854H3.29538L3.42001 5.92088ZM5.70464 5.92088L5.82927 6.30854H6.23079L5.89849 6.54395L6.03697 6.9178L5.70464 6.68239L5.37234 6.9178L5.51079 6.54395L5.17849 6.30854H5.58004L5.70464 5.92088ZM7.97545 5.92088L8.11389 6.30854H8.5016L8.18312 6.54395L8.30775 6.9178L7.97545 6.68239L7.65697 6.9178L7.7816 6.54395L7.44927 6.30854H7.86467L7.97545 5.92088ZM10.2601 5.92088L10.3847 6.30854H10.7862L10.4678 6.54395L10.5924 6.9178L10.2601 6.68239L9.9416 6.9178L10.0662 6.54395L9.73393 6.30854H10.1354L10.2601 5.92088ZM12.5447 5.92088L12.6693 6.30854H13.0709L12.7386 6.54395L12.877 6.9178L12.5447 6.68239L12.2124 6.9178L12.3509 6.54395L12.0186 6.30854H12.4201L12.5447 5.92088ZM2.2846 6.89013L2.40923 7.27784H2.81079L2.47845 7.51321L2.61693 7.88706L2.2846 7.65169L1.9523 7.88706L2.09075 7.51321L1.75845 7.27784H2.16001L2.2846 6.89013ZM4.55541 6.89013L4.69386 7.27784H5.08156L4.76308 7.51321L4.88771 7.88706L4.55541 7.65169L4.23693 7.88706L4.36156 7.51321L4.02923 7.27784H4.44464L4.55541 6.89013ZM6.84004 6.89013L6.96467 7.27784H7.36619L7.04775 7.51321L7.17234 7.88706L6.84004 7.65169L6.52156 7.88706L6.64619 7.51321L6.31389 7.27784H6.71541L6.84004 6.89013ZM9.12467 6.89013L9.2493 7.27784H9.65082L9.31852 7.51321L9.457 7.88709L9.12467 7.65172L8.79238 7.88709L8.93082 7.51324L8.59852 7.27787H9.00004L9.12467 6.89013ZM11.3955 6.89013L11.5339 7.27784H11.9078L11.5893 7.51321L11.7139 7.88706L11.3816 7.65169L11.0632 7.88706L11.1878 7.51321L10.8554 7.27784H11.2709L11.3955 6.89013ZM1.1492 7.85939L1.25997 8.24706H1.67538L1.34305 8.48246L1.46768 8.85632L1.13538 8.62091L0.83075 8.85632L0.955379 8.48246L0.623047 8.24706H1.03849L1.1492 7.85939ZM3.42001 7.85939L3.54464 8.24706H3.94616L3.62771 8.48246L3.7523 8.85632L3.42001 8.62091L3.10153 8.85632L3.22616 8.48246L2.89386 8.24706H3.29538L3.42001 7.85939ZM5.70464 7.85939L5.82927 8.24706H6.23079L5.89849 8.48246L6.03697 8.85632L5.70464 8.62091L5.37234 8.85632L5.51079 8.48246L5.17849 8.24706H5.58004L5.70464 7.85939ZM7.97545 7.85939L8.11389 8.24706H8.5016L8.18312 8.48246L8.30775 8.85632L7.97545 8.62091L7.65697 8.85632L7.7816 8.48246L7.44927 8.24706H7.86467L7.97545 7.85939ZM10.2601 7.85939L10.3847 8.24706H10.7862L10.4678 8.48246L10.5924 8.85632L10.2601 8.62091L9.9416 8.85632L10.0662 8.48246L9.73393 8.24706H10.1354L10.2601 7.85939ZM12.5447 7.85939L12.6693 8.24706H13.0709L12.7386 8.48246L12.877 8.85632L12.5447 8.62091L12.2124 8.85632L12.3509 8.48246L12.0186 8.24706H12.4201L12.5447 7.85939Z" fill="white"/>
</g>
<g clip-path="url(#clip4_2009_546)">
<path d="M18 -0.310059H36V17.6899H18V-0.310059Z" fill="white"/>
</g>
</g>
</g>
</g>
<defs>
<clipPath id="clip0_2009_546">
<rect width="20" height="20" fill="white"/>
</clipPath>
<clipPath id="clip1_2009_546">
<rect width="20" height="20" fill="white" transform="translate(-1 -1.31006)"/>
</clipPath>
<clipPath id="clip2_2009_546">
<rect width="306" height="288" fill="white" transform="translate(-108 -270.31)"/>
</clipPath>
<clipPath id="clip3_2009_546">
<rect width="18" height="18" fill="white" transform="translate(0 -0.310059)"/>
</clipPath>
<clipPath id="clip4_2009_546">
<rect width="18" height="18" fill="white" transform="translate(18 -0.310059)"/>
</clipPath>
</defs>
</svg>
