<svg width="1920" height="193" viewBox="0 0 1920 193" fill="none" xmlns="http://www.w3.org/2000/svg">
<path d="M-1397.5 6.74999V12.5H-1413.5L-1429.5 61L-1402 142.75L-1360 12.5H-1384.75V6.74999H-1336.75V12.5H-1352.75L-1410 187.5H-1415.75L-1443.75 104.75L-1470.75 187.5H-1476.5L-1535.5 12.5H-1550.75V6.74999H-1397.5ZM-1445.75 12.5L-1433 50.75L-1420.75 12.5H-1445.75ZM-1474.75 12.5H-1506.5L-1462.75 142.75L-1447.25 94.5L-1474.75 12.5ZM-1256.55 6.74999V12.5H-1277.55V88.5H-1208.8V12.5H-1229.8V6.74999H-1158.55V12.5H-1179.55V178.5H-1158.55V184H-1229.8V178.5H-1208.8V95.75H-1277.55V178.5H-1256.55V184H-1327.8V178.5H-1306.8V12.5H-1327.8V6.74999H-1256.55ZM-1143.88 6.74999H-1017.88L-1016.63 55.25H-1019.38C-1028.63 12.75 -1041.13 12.5 -1078.63 12.5H-1093.63V90.75H-1086.13C-1078.38 90.75 -1065.88 90 -1060.38 82.5C-1056.38 77 -1056.13 64 -1055.63 58.5H-1051.88V130.75H-1055.38C-1055.63 126.25 -1054.38 103.75 -1067.38 98.25C-1069.13 97.5 -1075.13 97 -1086.13 97H-1093.63V178.5H-1066.63C-1027.38 178.5 -1023.63 170.5 -1012.88 131.5L-1012.13 128.25H-1008.63L-1013.13 184H-1143.88V178.5H-1122.88V12.5H-1143.88V6.74999ZM-994.137 6.74999H-921.137C-909.137 7 -874.137 7 -862.137 32C-857.637 41.5 -856.887 59.25 -865.637 70.75C-877.637 86.25 -900.137 89.75 -910.137 91.5C-873.137 98.5 -865.387 118.25 -864.637 147.75V155.5C-864.637 159 -864.887 173.75 -858.887 177.75C-854.887 180.75 -849.387 179.75 -842.387 177.75V182.75C-853.637 187 -868.887 188.5 -880.387 180.5C-894.387 170.5 -895.387 150.5 -895.387 140.75V132C-895.387 125 -895.887 110.25 -905.137 100.75C-913.137 92.5 -921.887 93.75 -940.137 93.75H-943.887V178.5H-922.887V184H-994.137V178.5H-973.137V12.5H-994.137V6.74999ZM-943.887 87H-938.887C-918.387 87 -902.637 88 -893.137 72C-887.637 62.5 -887.887 36.75 -893.887 26.75C-903.637 10.5 -916.637 12.5 -943.887 12.5V87ZM-830.062 6.74999H-704.062L-702.812 55.25H-705.562C-714.813 12.75 -727.312 12.5 -764.812 12.5H-779.812V90.75H-772.312C-764.562 90.75 -752.062 90 -746.562 82.5C-742.562 77 -742.312 64 -741.812 58.5H-738.062V130.75H-741.562C-741.812 126.25 -740.562 103.75 -753.562 98.25C-755.312 97.5 -761.312 97 -772.312 97H-779.812V178.5H-752.812C-713.562 178.5 -709.812 170.5 -699.062 131.5L-698.312 128.25H-694.812L-699.312 184H-830.062V178.5H-809.062V12.5H-830.062V6.74999ZM-639.539 6.74999H-513.539L-512.289 55.25H-515.039C-524.289 12.75 -536.789 12.5 -574.289 12.5H-589.289V90.75H-581.789C-574.039 90.75 -561.539 90 -556.039 82.5C-552.039 77 -551.789 64 -551.289 58.5H-547.539V130.75H-551.039C-551.289 126.25 -550.039 103.75 -563.039 98.25C-564.789 97.5 -570.789 97 -581.789 97H-589.289V178.5H-562.289C-523.039 178.5 -519.289 170.5 -508.539 131.5L-507.789 128.25H-504.289L-508.789 184H-639.539V178.5H-618.539V12.5H-639.539V6.74999ZM-417.799 6.74999H-411.049L-352.299 178.5H-339.799V184H-406.049V178.5H-383.049L-400.299 126.75H-452.549L-469.799 178.5H-447.299V184H-494.049V178.5H-477.549L-417.799 6.74999ZM-450.799 121.25H-402.299L-426.799 47.5L-450.799 121.25ZM-327.154 6.74999H-254.154C-242.154 7 -207.154 7 -195.154 32C-190.654 41.5 -189.904 59.25 -198.654 70.75C-210.654 86.25 -233.154 89.75 -243.154 91.5C-206.154 98.5 -198.404 118.25 -197.654 147.75V155.5C-197.654 159 -197.904 173.75 -191.904 177.75C-187.904 180.75 -182.404 179.75 -175.404 177.75V182.75C-186.654 187 -201.904 188.5 -213.404 180.5C-227.404 170.5 -228.404 150.5 -228.404 140.75V132C-228.404 125 -228.904 110.25 -238.154 100.75C-246.154 92.5 -254.904 93.75 -273.154 93.75H-276.904V178.5H-255.904V184H-327.154V178.5H-306.154V12.5H-327.154V6.74999ZM-276.904 87H-271.904C-251.404 87 -235.654 88 -226.154 72C-220.654 62.5 -220.904 36.75 -226.904 26.75C-236.654 10.5 -249.654 12.5 -276.904 12.5V87ZM-35.5312 6.74999L-31.2812 62.5H-34.5312C-45.0312 33 -48.5312 12.5 -73.2812 12.5H-89.5312V178.5H-67.0312V184H-141.281V178.5H-118.781V12.5H-134.781C-159.781 12.5 -163.031 33 -173.781 62.5H-177.031L-172.781 6.74999H-35.5312ZM50.2715 6.74999V12.5H29.2715V88.5H98.0215V12.5H77.0215V6.74999H148.271V12.5H127.271V178.5H148.271V184H77.0215V178.5H98.0215V95.75H29.2715V178.5H50.2715V184H-20.9785V178.5H0.0214866V12.5H-20.9785V6.74999H50.2715ZM205.475 6.74999H259.975L299.475 136.75L338.975 6.74999H391.225V12.5H370.475V178.5H391.225V184H320.225V178.5H341.225V18.75L291.475 184H285.475L234.225 18.5V178.5H255.225V184H205.475V178.5H226.475V12.5H205.475V6.74999ZM404.979 6.74999H530.979L532.229 55.25H529.479C520.229 12.75 507.729 12.5 470.229 12.5H455.229V90.75H462.729C470.479 90.75 482.979 90 488.479 82.5C492.479 77 492.729 64 493.229 58.5H496.979V130.75H493.479C493.229 126.25 494.479 103.75 481.479 98.25C479.729 97.5 473.729 97 462.729 97H455.229V178.5H482.229C521.479 178.5 525.229 170.5 535.979 131.5L536.729 128.25H540.229L535.729 184H404.979V178.5H425.979V12.5H404.979V6.74999ZM553.219 6.74999H679.219L680.469 55.25H677.719C668.469 12.75 655.969 12.5 618.469 12.5H603.469V90.75H610.969C618.719 90.75 631.219 90 636.719 82.5C640.719 77 640.969 64 641.469 58.5H645.219V130.75H641.719C641.469 126.25 642.719 103.75 629.719 98.25C627.969 97.5 621.969 97 610.969 97H603.469V178.5H630.469C669.719 178.5 673.469 170.5 684.219 131.5L684.969 128.25H688.469L683.969 184H553.219V178.5H574.219V12.5H553.219V6.74999ZM841.459 6.74999L845.709 62.5H842.459C831.959 33 828.459 12.5 803.709 12.5H787.459V178.5H809.959V184H735.709V178.5H758.209V12.5H742.209C717.209 12.5 713.959 33 703.209 62.5H699.959L704.209 6.74999H841.459ZM940.879 15.5L949.629 3.75H954.129V50.75H948.379C944.379 30.75 941.879 18.5 918.379 11.25C908.879 8.25 893.379 8.99999 882.629 19.5C874.129 27.5 871.379 39 873.879 48.5C877.879 63.75 894.629 67.75 907.129 71.25L917.379 74C935.629 79 951.129 82.75 959.379 104.75C965.129 120.25 962.629 149.25 951.879 165.25C940.629 182 925.129 187 910.129 187.5C896.629 187.75 884.129 182 869.879 171.25L859.879 184H854.379V128.25H861.129C864.629 151.25 869.129 169.25 895.629 178.5C906.129 182 926.129 181 936.879 171C947.629 161 949.879 142.75 947.129 131.5C942.629 114.25 929.629 110.75 912.879 106.5L904.379 104C882.129 98.25 864.629 91.25 860.129 67.75C856.629 52.25 861.629 26.75 879.879 12.75C894.629 1.25 914.879 1.5 930.629 9.24998C933.129 10.5 935.129 11.75 940.879 15.5ZM1018.01 6.74999H1144.01L1145.26 55.25H1142.51C1133.26 12.75 1120.76 12.5 1083.26 12.5H1068.26V90.75H1075.76C1083.51 90.75 1096.01 90 1101.51 82.5C1105.51 77 1105.76 64 1106.26 58.5H1110.01V130.75H1106.51C1106.26 126.25 1107.51 103.75 1094.51 98.25C1092.76 97.5 1086.76 97 1075.76 97H1068.26V178.5H1095.26C1134.51 178.5 1138.26 170.5 1149.01 131.5L1149.76 128.25H1153.26L1148.76 184H1018.01V178.5H1039.01V12.5H1018.01V6.74999ZM1167 6.74999H1238.25V12.5H1217.25V178.5H1241.25C1260.25 178.5 1277.25 180.5 1288.5 159.25C1293.5 150 1295.5 140.25 1298 128.5H1302.25L1297.75 184H1167V178.5H1188V12.5H1167V6.74999ZM1315.22 6.74999H1441.22L1442.47 55.25H1439.72C1430.47 12.75 1417.97 12.5 1380.47 12.5H1365.47V90.75H1372.97C1380.72 90.75 1393.22 90 1398.72 82.5C1402.72 77 1402.97 64 1403.47 58.5H1407.22V130.75H1403.72C1403.47 126.25 1404.72 103.75 1391.72 98.25C1389.97 97.5 1383.97 97 1372.97 97H1365.47V178.5H1392.47C1431.72 178.5 1435.47 170.5 1446.22 131.5L1446.97 128.25H1450.47L1445.97 184H1315.22V178.5H1336.22V12.5H1315.22V6.74999ZM1579.46 17.25L1588.71 6H1593.46L1594.46 58.75H1589.46C1585.21 42 1577.96 19.5 1557.21 11.5C1546.21 7.25 1529.21 7 1517.96 14.5C1501.96 25.5 1499.71 55.5 1499.71 65.5V126.75C1499.71 136.25 1501.21 166 1518.96 177.25C1526.71 182 1541.21 182 1550.21 178.25C1561.46 173.25 1566.96 164.25 1568.96 153.5C1569.96 148 1569.96 141.75 1569.96 137.5C1569.96 137.5 1569.96 127.75 1569.96 127.25H1544.71V121.5H1617.71V127.25H1602.21C1598.46 155.75 1593.96 170.25 1564.46 182C1544.46 190 1519.96 190.25 1498.46 173.5C1463.96 145.75 1461.71 105.25 1466.21 75.75C1470.21 50.5 1486.21 20.25 1519.46 7.25C1537.96 0.249996 1558.71 2.74999 1579.46 17.25ZM1684.71 6.74999H1691.46L1750.21 178.5H1762.71V184H1696.46V178.5H1719.46L1702.21 126.75H1649.96L1632.71 178.5H1655.21V184H1608.46V178.5H1624.96L1684.71 6.74999ZM1651.71 121.25H1700.21L1675.71 47.5L1651.71 121.25ZM1774.61 6.74999H1829.61L1907.86 128V12.5H1887.86V6.74999H1935.61V12.5H1915.61V184H1909.61L1803.11 19V178.5H1824.11V184H1774.36V178.5H1795.36V12.5H1774.61V6.74999ZM2068.96 19L2077.21 6.74999H2081.96V52.75H2076.96C2070.46 33.25 2064.71 19.25 2042.96 11.75C2031.96 7.99999 2015.96 8.49999 2004.46 16.5C1987.21 28.75 1984.71 60.5 1984.71 70.75V123.75C1984.71 134.5 1983.71 161.75 2003.96 174.5C2016.71 182.25 2033.21 182.5 2045.71 176.75C2065.46 167.25 2072.46 151.5 2078.46 133.75H2081.96V184H2077.21L2068.46 171.5C2043.96 187.5 2023.96 192.25 2000.96 182.5C1971.46 169.75 1956.21 141.75 1951.96 118.75C1947.46 92 1948.71 53.25 1979.46 24.25C1999.21 5.74999 2022.21 0.499993 2042.21 5.49999C2050.46 7.25 2058.96 11 2068.96 19ZM2095.24 6.74999H2221.24L2222.49 55.25H2219.74C2210.49 12.75 2197.99 12.5 2160.49 12.5H2145.49V90.75H2152.99C2160.74 90.75 2173.24 90 2178.74 82.5C2182.74 77 2182.99 64 2183.49 58.5H2187.24V130.75H2183.74C2183.49 126.25 2184.74 103.75 2171.74 98.25C2169.99 97.5 2163.99 97 2152.99 97H2145.49V178.5H2172.49C2211.74 178.5 2215.49 170.5 2226.24 131.5L2226.99 128.25H2230.49L2225.99 184H2095.24V178.5H2116.24V12.5H2095.24V6.74999Z" fill="black"/>
</svg>
